<svg id="sprite.fw-Page_201" data-name="sprite.fw-Page%201" xmlns="http://www.w3.org/2000/svg" width="188" height="161" viewBox="0 0 188 161">
  <defs>
    <style>
      .cls-1 {
        fill: #fff;
      }

      .cls-2, .cls-3 {
        fill: none;
        stroke-width: 2px;
      }

      .cls-2 {
        stroke: #fff;
      }

      .cls-3 {
        stroke: #bd1219;
        stroke-miterlimit: 10;
      }
    </style>
  </defs>
  <title>sprite.fw</title>
  <g id="Layer_1_1" data-name="Layer 1 1">
    <g>
      <path class="cls-1" d="M97.85,8.46H59.11a6,6,0,0,0-6,6V23a6,6,0,0,0,6,6H97.85V25.21H97.76v0l-0.27,0H58.89a2.08,2.08,0,0,1-2.08-2.07V14.48a2.08,2.08,0,0,1,2.08-2.07H97.6l0.25,0v0h0V8.46Z"/>
      <path class="cls-1" d="M46.64,21.29V14.45a6,6,0,0,0-6-6h-34a6,6,0,0,0-6,6V29.12H4.38V29h0a2.23,2.23,0,0,1,0-.27V14.23a2.08,2.08,0,0,1,2.08-2.07H21.68v9.13h0V28.7a1.8,1.8,0,0,1,0,.25h4V21.29h0V12.16h15a2.08,2.08,0,0,1,2.08,2.07v7.05h0V28.7a1.82,1.82,0,0,1,0,.25h4V21.29h0Z"/>
      <path class="cls-1" d="M149.81,12.34V8.41H105.46l-0.64,0,0,0h0v3.94h20.54v8.95h0V28.7a2.44,2.44,0,0,1,0,.25h4V21.29h0V12.34h20.51Z"/>
    </g>
    <path class="cls-2" d="M49.44,70.19L63.75,56.51,49,42.31h0"/>
    <path class="cls-2" d="M80,49.31L93.74,63.59,108,48.91h0"/>
    <path class="cls-2" d="M138.56,42.31L124.25,56,139,70.19h0"/>
    <path class="cls-2" d="M32.9,42.31L4.7,70.19h0m0-27.88L32.9,70.19h0"/>
    <path class="cls-2" d="M157.81,73.75L180.68,37.5,157.17,1.25h0"/>
    <path class="cls-3" d="M46.77,157.44l14.31-13.68-14.71-14.2h0"/>
    <path class="cls-3" d="M77.34,136.56l13.72,14.27,14.24-14.67h0"/>
    <path class="cls-3" d="M135.88,129.56l-14.31,13.68,14.71,14.2h0"/>
    <path class="cls-3" d="M30.22,129.56L2,157.44H2m0-27.88,28.2,27.88h0"/>
    <path class="cls-3" d="M157.64,157.75l22.87-36.25L157,85.25h0"/>
  </g>
</svg>
