<?xml version="1.0" standalone="no"?><!-- Generator: Adobe Fireworks CS6, Export SVG Extension by Aaron Beall (http://fireworks.abeall.com) . Version: 0.6.1  --><!DOCTYPE svg PUBLIC "-//W3C//DTD SVG 1.1//EN" "http://www.w3.org/Graphics/SVG/1.1/DTD/svg11.dtd"><svg id="sprite.fw-Page%201" viewBox="0 0 188 75" style="background-color:#ffffff00" version="1.1"	xmlns="http://www.w3.org/2000/svg" xmlns:xlink="http://www.w3.org/1999/xlink" xml:space="preserve"	x="0px" y="0px" width="188px" height="75px">	<g id="Layer_1_1">		<path d="M 188 75 L 0 75 L 0 0 L 188 0 L 188 75 Z" fill="none"/>		<g>			<path d="M 97.8506 8.4631 L 90.1702 8.4631 L 90.1702 8.4711 L 59.1086 8.4711 C 55.8058 8.4711 53.1039 11.1658 53.1039 14.4598 L 53.1039 22.9596 C 53.1039 26.2537 55.8058 28.9484 59.1086 28.9484 L 92.2026 28.9484 C 92.2907 28.9484 92.3795 28.9459 92.4676 28.9423 L 97.8506 28.9423 L 97.8506 25.2069 L 97.7625 25.2069 C 97.7661 25.1984 97.7704 25.191 97.7741 25.1819 C 97.6847 25.1935 97.5935 25.2008 97.5005 25.2008 L 58.8908 25.2008 C 57.7464 25.2008 56.8112 24.2682 56.8112 23.1287 L 56.8112 14.4769 C 56.8112 13.3374 57.7464 12.4048 58.8908 12.4048 L 90.1702 12.4048 L 90.1702 12.4084 L 97.5984 12.4084 C 97.6835 12.4133 97.7673 12.4207 97.8506 12.4347 C 97.8469 12.4261 97.8438 12.417 97.8402 12.4084 L 97.8506 12.4084 L 97.8506 8.4631 Z" fill="#ffffff"/>			<path d="M 46.6371 21.2885 L 46.6371 14.4513 C 46.6371 11.1572 43.9352 8.4637 40.6324 8.4637 L 6.6357 8.4637 C 3.3335 8.4637 0.631 11.1572 0.631 14.4513 L 0.6377 29.1223 L 4.3824 29.1223 L 4.3824 29.035 C 4.391 29.0387 4.4001 29.0424 4.4075 29.046 C 4.3965 28.9563 4.3897 28.866 4.3897 28.7738 L 4.3897 14.234 C 4.3897 13.0939 5.3248 12.16 6.468 12.16 L 21.6769 12.16 L 21.6769 21.2885 L 21.6732 21.2885 L 21.6732 28.6975 C 21.6696 28.7823 21.6622 28.866 21.6469 28.949 C 21.6561 28.9447 21.6647 28.941 21.6732 28.9386 L 21.6732 28.949 L 25.6291 28.949 L 25.6291 21.2885 L 25.6211 21.2885 L 25.6211 12.16 L 40.6152 12.16 C 41.7578 12.16 42.6929 13.0939 42.6929 14.234 L 42.6929 21.2885 L 42.6892 21.2885 L 42.6892 28.6975 C 42.6855 28.7823 42.6782 28.866 42.6629 28.949 C 42.6715 28.9447 42.6807 28.941 42.6892 28.9386 L 42.6892 28.949 L 46.6451 28.949 L 46.6451 21.2885 L 46.6371 21.2885 Z" fill="#ffffff"/>			<path d="M 149.8137 12.3413 L 149.8137 8.4076 L 124.4007 8.4076 L 124.4007 8.4039 L 105.4618 8.4039 C 105.2439 8.4003 105.0291 8.3923 104.8198 8.3777 C 104.8278 8.3862 104.8363 8.3948 104.8449 8.4039 L 104.8198 8.4039 L 104.8198 12.3486 L 124.4007 12.3486 L 124.4007 12.3413 L 125.356 12.3413 L 125.356 21.2885 L 125.3523 21.2885 L 125.3523 28.6975 C 125.3474 28.7823 125.3395 28.866 125.326 28.949 C 125.3346 28.9447 125.3431 28.941 125.3523 28.9386 L 125.3523 28.949 L 129.3075 28.949 L 129.3075 21.2885 L 129.3002 21.2885 L 129.3002 12.3413 L 149.8137 12.3413 Z" fill="#ffffff"/>		</g>		<g>			<path d="M 49.4436 70.1917 L 63.7548 56.5094 L 49.0452 42.3083 L 49.0452 42.3083 " stroke="#ffffff" stroke-width="1" fill="none"/>		</g>		<g>			<path d="M 80.0212 49.3121 L 93.7399 63.5852 L 107.9788 48.9148 L 107.9788 48.9148 " stroke="#ffffff" stroke-width="1" fill="none"/>		</g>		<g>			<path d="M 138.5564 42.3083 L 124.2452 55.9906 L 138.9548 70.1917 L 138.9548 70.1917 " stroke="#ffffff" stroke-width="1" fill="none"/>		</g>		<g>			<path d="M 32.8994 42.3083 L 4.7006 70.1917 L 4.7006 70.1917 M 4.7006 42.3083 L 32.8994 70.1917 L 32.8994 70.1917 " stroke="#ffffff" stroke-width="1" fill="none"/>		</g>		<g>			<path d="M 157.8068 73.75 L 180.6783 37.5 L 157.1709 1.25 L 157.1709 1.25 " stroke="#ffffff" stroke-width="1" fill="none"/>		</g>		<g visibility="hidden">			<path d="M 37.6 37.5 L 0 37.5 L 0 0 L 37.6 0 L 37.6 37.5 Z" stroke="#000000" stroke-width="1" fill="none"/>			<path d="M 75.2 37.5 L 37.6 37.5 L 37.6 0 L 75.2 0 L 75.2 37.5 Z" stroke="#000000" stroke-width="1" fill="none"/>			<path d="M 112.8 37.5 L 75.2 37.5 L 75.2 0 L 112.8 0 L 112.8 37.5 Z" stroke="#000000" stroke-width="1" fill="none"/>			<path d="M 150.4 37.5 L 112.8 37.5 L 112.8 0 L 150.4 0 L 150.4 37.5 Z" stroke="#000000" stroke-width="1" fill="none"/>			<path d="M 37.6 75 L 0 75 L 0 37.5 L 37.6 37.5 L 37.6 75 Z" stroke="#000000" stroke-width="1" fill="none"/>			<path d="M 75.2 75 L 37.6 75 L 37.6 37.5 L 75.2 37.5 L 75.2 75 Z" stroke="#000000" stroke-width="1" fill="none"/>			<path d="M 112.8 75 L 75.2 75 L 75.2 37.5 L 112.8 37.5 L 112.8 75 Z" stroke="#000000" stroke-width="1" fill="none"/>			<path d="M 150.4 75 L 112.8 75 L 112.8 37.5 L 150.4 37.5 L 150.4 75 Z" stroke="#000000" stroke-width="1" fill="none"/>			<path d="M 188 37.5 L 150.4 37.5 L 150.4 0 L 188 0 L 188 37.5 Z" stroke="#000000" stroke-width="1" fill="none"/>			<path d="M 188 75 L 150.4 75 L 150.4 37.5 L 188 37.5 L 188 75 Z" stroke="#000000" stroke-width="1" fill="none"/>		</g>	</g></svg>